<?xml version="1.0" encoding="utf-8"?>
<!-- Generator: Adobe Illustrator 19.2.1, SVG Export Plug-In . SVG Version: 6.00 Build 0)  -->
<svg version="1.1" id="watch_x5F_series_x5F_2" xmlns="http://www.w3.org/2000/svg" xmlns:xlink="http://www.w3.org/1999/xlink"
	 x="0px" y="0px" width="25px" height="54px" viewBox="0 0 25 54" style="enable-background:new 0 0 25 54;" xml:space="preserve">
<path style="fill:#333333;" d="M23,23v-2c0-2.2-1.8-4-4-4v-6c0-1.1-0.9-2-2-2h-1.5v2h-1V9h-2v2h-1V9h-2v2h-1V9H7c-1.1,0-2,0.9-2,2v6
	c-2.2,0-4,1.8-4,4v18c0,2.2,1.8,4,4,4v6c0,1.1,0.9,2,2,2h1.5v-2h1v2h2v-2h1v2h2v-2h1v2H17c1.1,0,2-0.9,2-2v-6c2.2,0,4-1.8,4-4V28h1
	v-5H23z M16,11h1v2h-1V11z M16,15h1v2h-1V15z M14.5,13h1v2h-1V13z M13,11h1v2h-1V11z M13,15h1v2h-1V15z M11.5,13h1v2h-1V13z M10,11
	h1v2h-1V11z M10,15h1v2h-1V15z M8.5,13h1v2h-1V13z M7,11h1v2H7V11z M7,15h1v2H7V15z M8,49H7v-2h1V49z M8,45H7v-2h1V45z M9.5,47h-1
	v-2h1V47z M11,49h-1v-2h1V49z M11,45h-1v-2h1V45z M12.5,47h-1v-2h1V47z M14,49h-1v-2h1V49z M14,45h-1v-2h1V45z M15.5,47h-1v-2h1V47z
	 M17,49h-1v-2h1V49z M17,45h-1v-2h1V45z M22,39c0,1.65-1.35,3-3,3h-2H7H5c-1.65,0-3-1.35-3-3V21c0-1.65,1.35-3,3-3h2h10h2
	c1.65,0,3,1.35,3,3V39z"/>
</svg>
