<?xml version="1.0" encoding="utf-8"?>
<!-- Generator: Adobe Illustrator 19.2.1, SVG Export Plug-In . SVG Version: 6.00 Build 0)  -->
<svg version="1.1" id="watch_x5F_series_x5F_2" xmlns="http://www.w3.org/2000/svg" xmlns:xlink="http://www.w3.org/1999/xlink"
	 x="0px" y="0px" width="39px" height="54px" viewBox="0 0 39 54" style="enable-background:new 0 0 39 54;" xml:space="preserve">
<path style="fill:#333333;" d="M37,31v9.36c0,1.05-0.25,1.9-0.89,2.58c-0.03,0.04-0.17,0.23-0.17,0.23s-1.23,1.83-1.51,2.32
	c-0.81,1.38-0.59,3.42-0.69,3.89c-0.1,0.51-0.48,0.83-1.01,1C31.83,50.65,29.36,51,27.86,51c-1.5,0-4.03-0.35-4.92-0.62
	c-0.53-0.16-0.91-0.46-1.01-0.96c-0.1-0.47,0.12-2.52-0.69-3.91c-0.28-0.49-0.6-0.88-0.87-1.17c0,0-0.18-0.11-0.38-0.34
	c0.69-0.16,1.58-0.57,2.13-1h11.61c1.44,0,2.28-1.17,2.28-2.74V25.17c0-1.56-0.83-3.17-2.28-3.17H24v-0.62
	c0-2.31-0.81-3.6-2.54-4.63c0.01-0.44,0.01-0.97,0.04-1.12c0.1-0.51,0.48-0.83,1.01-1C23.4,14.35,25.88,14,27.38,14
	c1.5,0,4.03,0.34,4.92,0.61c0.53,0.16,0.91,0.44,1.01,0.95c0.1,0.47-0.12,2.92,0.69,4.3c0.28,0.49,0.6,0.81,0.87,1.1
	c0,0,1.06,1.04,1.06,1.04h-0.01c0.78,1,1.08,2.05,1.08,3.23L37,27h1v4H37z M24,23v5h-1v11c0,2.2-1.8,4-4,4v6c0,1.1-0.9,2-2,2h-1.5
	v-2h-1v2h-2v-2h-1v2h-2v-2h-1v2H7c-1.1,0-2-0.9-2-2v-6c-2.2,0-4-1.8-4-4V21c0-2.2,1.8-4,4-4v-6c0-1.1,0.9-2,2-2h1.5v2h1V9h2v2h1V9h2
	v2h1V9H17c1.1,0,2,0.9,2,2v6c2.2,0,4,1.8,4,4v2H24z M16,13h1v-2h-1V13z M16,17h1v-2h-1V17z M14.5,15h1v-2h-1V15z M13,13h1v-2h-1V13z
	 M13,17h1v-2h-1V17z M11.5,15h1v-2h-1V15z M10,13h1v-2h-1V13z M10,17h1v-2h-1V17z M8.5,15h1v-2h-1V15z M7,13h1v-2H7V13z M7,17h1v-2
	H7V17z M8,47H7v2h1V47z M8,43H7v2h1V43z M9.5,45h-1v2h1V45z M11,47h-1v2h1V47z M11,43h-1v2h1V43z M12.5,45h-1v2h1V45z M14,47h-1v2h1
	V47z M14,43h-1v2h1V43z M15.5,45h-1v2h1V45z M17,47h-1v2h1V47z M17,43h-1v2h1V43z M22,21c0-1.65-1.35-3-3-3h-2H7H5
	c-1.65,0-3,1.35-3,3v18c0,1.65,1.35,3,3,3h2h10h2c1.65,0,3-1.35,3-3V21z"/>
</svg>
