<?xml version="1.0" encoding="utf-8"?>
<!-- Generator: Adobe Illustrator 19.2.1, SVG Export Plug-In . SVG Version: 6.00 Build 0)  -->
<svg version="1.1" id="watch_x5F_series_x5F_2" xmlns="http://www.w3.org/2000/svg" xmlns:xlink="http://www.w3.org/1999/xlink"
	 x="0px" y="0px" width="25px" height="54px" viewBox="0 0 25 54" style="enable-background:new 0 0 25 54;" xml:space="preserve">
<path style="fill:#333333;" d="M24,28v-5h-1.011c0,0,0.006-1.666,0.006-1.667c0.003-0.765-0.21-1.504-0.594-2.164
	c-0.397-0.683-1.113-1.264-1.54-1.926c-0.588-0.911-1.056-1.911-1.308-2.968c-0.274-1.15-0.188-2.344-0.42-3.5
	c-0.178-0.886-0.837-1.282-1.684-1.404c-0.931-0.134-1.873-0.204-2.811-0.263c-0.977-0.061-1.957-0.106-2.937-0.106
	c-1.72,0-4.564,0.112-5.59,0.429C5.5,9.619,5.073,9.991,4.953,10.575c-0.115,0.538-0.201,1.864-0.298,2.626
	c-0.395,3.08-1.883,4.442-1.883,4.442s-0.41,0.455-0.461,0.505c-0.802,0.791-1.316,1.918-1.316,3.186c0,0-0.062,17.333-0.062,17.333
	c0,1.212,0.499,2.332,1.453,3.207c1.183,1.086,1.891,1.812,2.255,4.128c0.183,1.16,0.052,2.334,0.284,3.463
	c0.12,0.584,0.651,0.918,1.263,1.108c1.026,0.317,4.351,0.429,6.071,0.429c1.72,0,4.564-0.112,5.59-0.429
	c0.612-0.189,1.038-0.561,1.158-1.144c0.115-0.538-0.141-3.167,0.793-4.757c0.327-0.562,1.736-2.67,1.736-2.67
	s0.155-0.221,0.195-0.263c0.737-0.783,1.202-1.864,1.202-3.071L22.971,28H24z M22,38.668C22,40.463,20.652,42,18.995,42h-14
	C3.338,42,2,40.463,2,38.668V21.335C2,19.54,3.338,18,4.995,18h14C20.652,18,22,19.54,22,21.335V38.668z"/>
</svg>
