<?xml version="1.0" encoding="utf-8"?>
<svg version="1.1" xmlns="http://www.w3.org/2000/svg" xmlns:xlink="http://www.w3.org/1999/xlink" width="19px" height="19px">
	<path fill="#777777" d="M17.632,16.955l-4.761-4.762c1.109-1.188,1.795-2.776,1.795-4.527c0-3.667-2.982-6.648-6.649-6.648
		c-3.667,0-6.649,2.981-6.649,6.647c0,3.667,2.982,6.647,6.649,6.647c1.391,0,2.682-0.434,3.75-1.164l4.834,4.834L17.632,16.955z
		 M2.824,7.666c0-2.862,2.33-5.191,5.192-5.191c2.864,0,5.192,2.329,5.192,5.191c0,2.861-2.328,5.191-5.192,5.191
		C5.154,12.855,2.824,10.527,2.824,7.666z"/>
</svg>
