<?xml version="1.0" encoding="utf-8"?>
<!-- Generator: Adobe Illustrator 16.0.4, SVG Export Plug-In . SVG Version: 6.00 Build 0)  -->
<!DOCTYPE svg PUBLIC "-//W3C//DTD SVG 1.1//EN" "http://www.w3.org/Graphics/SVG/1.1/DTD/svg11.dtd">
<svg version="1.1" xmlns="http://www.w3.org/2000/svg" xmlns:xlink="http://www.w3.org/1999/xlink" x="0px" y="0px" width="38px"
	 height="54px" viewBox="0 0 38 54" enable-background="new 0 0 38 54" xml:space="preserve">
<g id="Dark">
	<g id="iPhone_2_">
		<path id="iPhone_6_1_" fill="#EFEFEF" d="M14.995,48.129l-0.044-1.121H2V16.993h13V13H3.87C2.294,13,1,14.303,1,15.877v32.264
			C1,49.713,2.294,51,3.87,51h12.773C15.786,50.327,14.995,49.295,14.995,48.129z M9,15h3v0.5H9V15z M10.501,50.5
			C9.674,50.5,9,49.826,9,49.001c0-0.828,0.674-1.501,1.501-1.501c0.827,0,1.499,0.673,1.499,1.501
			C12,49.826,11.328,50.5,10.501,50.5z M34.653,6H19.327C17.485,6,16,7.51,16,9.354V47.63c0,1.847,1.485,3.37,3.327,3.37h15.326
			C36.493,51,38,49.477,38,47.63V9.354C38,7.51,36.493,6,34.653,6z M25.5,8.501h3v0.5h-3V8.501z M27.001,50.25
			c-0.966,0-1.751-0.783-1.751-1.75c0-0.966,0.785-1.75,1.751-1.75c0.965,0,1.749,0.784,1.749,1.75
			C28.75,49.467,27.966,50.25,27.001,50.25z M37,46H17V11h20V46z M27,49.5c-0.551,0-1-0.449-1-1.001c0-0.551,0.449-0.999,1-0.999
			s1,0.448,1,0.999C28,49.051,27.551,49.5,27,49.5z M10.5,49.875c-0.482,0-0.875-0.392-0.875-0.875c0-0.482,0.392-0.875,0.875-0.875
			s0.875,0.393,0.875,0.875C11.375,49.483,10.982,49.875,10.5,49.875z"/>
	</g>
</g>
<g id="Light">
</g>
</svg>
