<?xml version="1.0" encoding="utf-8"?>
<!-- Generator: Adobe Illustrator 19.2.1, SVG Export Plug-In . SVG Version: 6.00 Build 0)  -->
<svg version="1.1"
	 xmlns="http://www.w3.org/2000/svg" xmlns:xlink="http://www.w3.org/1999/xlink" xmlns:a="http://ns.adobe.com/AdobeSVGViewerExtensions/3.0/"
	 x="0px" y="0px" width="44px" height="54px" viewBox="0 0 44 54" style="enable-background:new 0 0 44 54;" xml:space="preserve">
<g id="Dark">
	<path style="fill:#EFEFEF;" d="M15.93,12h7.58V9.5c0-2.29-1.58-3.5-3.92-3.5H4.94C2.57,6,1.01,7.17,1.01,9.5v37.23l0,0.05
		C1.04,49.07,2.6,51,4.94,51h8.05c-0.46-0.6-0.98-1.36-0.98-2.27V16.09C12.01,13.64,13.66,12,15.93,12z M7.66,10.6H5.1
		c-0.85,0-1.53-0.69-1.53-1.53S4.25,7.53,5.1,7.53h2.56c0.85,0,1.53,0.69,1.53,1.53S8.51,10.6,7.66,10.6z"/>
	<path style="fill:#EFEFEF;" d="M40.06,35.56c1,0,2.46,0.82,2.85,1.47c0.05,0.09,0.07,1.17,0.07,1.17c0,0.64-0.05,1.11-0.08,1.23
		c-0.03,0.12-1.4,1.4-2.81,1.4c-0.75,0-1.08-0.43-1.08-0.43v10.1c0,0.27-0.4,0.5-0.67,0.5l-0.82,0c-0.27,0-0.51-0.23-0.51-0.5
		c0,0,0.01-7.99,0.01-8.96C37.02,39.23,37.32,35.56,40.06,35.56z"/>
	<path style="fill:#EFEFEF;" d="M32.79,42.01c-1.8,0-3.77-1.65-3.92-2.31c-0.06-0.25-0.11-0.85-0.11-1.47
		c0.01-1.31,0.08-1.47,0.22-1.7c0.55-0.92,2.15-1.94,3.55-1.94c0.06,0,0.41,0.01,0.47,0.01V16.23c0-2.05-1.33-3.23-3.38-3.23H16.38
		c-2.05,0-3.38,1.2-3.38,3.25v31.67c0,2.05,1.3,3.08,3.34,3.08h13.34c2,0,3.32-1.02,3.32-3.06l0-5.93c0,0-0.01,0-0.01,0
		C32.93,42,32.86,42.01,32.79,42.01z M19.16,17.25h-2.05c-0.71,0-1.28-0.57-1.28-1.28s0.57-1.28,1.28-1.28h2.05
		c0.71,0,1.28,0.57,1.28,1.28S19.87,17.25,19.16,17.25z"/>
	<path style="fill:#EFEFEF;" d="M32.76,35.58c-1,0-2.29,0.81-2.68,1.45c-0.05,0.09-0.07,1.17-0.07,1.17c0,0.64,0.05,1.11,0.08,1.23
		c0.03,0.12,1.23,1.42,2.63,1.42c0.75,0,1.28-0.45,1.28-0.45v10.08c0,0.27,0.19,0.49,0.46,0.49h1.05c0.27,0,0.49-0.22,0.49-0.49
		c0,0,0-7.88,0-8.85C36.01,39.32,35.5,35.58,32.76,35.58z"/>
</g>
<g id="Light">
</g>
</svg>
