<?xml version="1.0" encoding="iso-8859-1"?>
<!-- Generator: Adobe Illustrator 18.0.0, SVG Export Plug-In . SVG Version: 6.00 Build 0)  -->
<!DOCTYPE svg PUBLIC "-//W3C//DTD SVG 1.1//EN" "http://www.w3.org/Graphics/SVG/1.1/DTD/svg11.dtd">
<svg version="1.1" id="Layer_1" xmlns="http://www.w3.org/2000/svg" xmlns:xlink="http://www.w3.org/1999/xlink" x="0px" y="0px"
	 width="38px" height="54px" viewBox="0 0 38 54" style="enable-background:new 0 0 38 54;" xml:space="preserve">
<path style="fill:#333333;" d="M36.933,13h-0.01H13.077h-0.01C12.378,13,12,13.447,12,14.154v6.721v28.472
	C12,50.053,12.378,51,13.067,51h23.866C37.622,51,38,50.053,38,49.346V20.874v-6.721C38,13.447,37.622,13,36.933,13z M25,14.343
	c0.268,0,0.49,0.224,0.49,0.495c0,0.271-0.222,0.495-0.49,0.495c-0.268,0-0.49-0.224-0.49-0.495
	C24.51,14.567,24.732,14.343,25,14.343z M25.005,50.019c-0.548,0-0.996-0.448-0.996-0.996c0-0.548,0.448-0.996,0.996-0.996
	c0.548,0,0.996,0.448,0.996,0.996C26,49.571,25.552,50.019,25.005,50.019z M36,47H14V16.5h22V47z"/>
<path style="fill:#333333;" d="M11,47H2V7h30v5h2V4.502C34,3.651,33.33,3,32.499,3H1.443C0.611,3,0,3.651,0,4.502v45.056
	C0,50.409,0.611,51,1.443,51h10.001C11.156,50.523,11,49.931,11,49.346V47z M16.97,4.252c0.411,0,0.751,0.34,0.751,0.751
	s-0.341,0.751-0.751,0.751c-0.411,0-0.751-0.34-0.751-0.751S16.559,4.252,16.97,4.252z"/>
</svg>
