<?xml version="1.0" encoding="iso-8859-1"?>
<!-- Generator: Adobe Illustrator 18.0.0, SVG Export Plug-In . SVG Version: 6.00 Build 0)  -->
<!DOCTYPE svg PUBLIC "-//W3C//DTD SVG 1.1//EN" "http://www.w3.org/Graphics/SVG/1.1/DTD/svg11.dtd">
<svg version="1.1" id="Layer_1" xmlns="http://www.w3.org/2000/svg" xmlns:xlink="http://www.w3.org/1999/xlink" x="0px" y="0px"
	 width="26px" height="54px" viewBox="0 0 26 54" style="enable-background:new 0 0 26 54;" xml:space="preserve">
<path style="fill:#333333;" d="M24.933,13h-0.01H1.077h-0.01C0.378,13,0,13.447,0,14.154v6.721v28.472C0,50.053,0.378,51,1.067,51
	h23.866C25.622,51,26,50.053,26,49.346V20.874v-6.721C26,13.447,25.622,13,24.933,13z M13,14.343c0.268,0,0.49,0.224,0.49,0.495
	c0,0.271-0.222,0.495-0.49,0.495c-0.268,0-0.49-0.224-0.49-0.495C12.51,14.567,12.732,14.343,13,14.343z M13.005,50.019
	c-0.548,0-0.996-0.448-0.996-0.996c0-0.548,0.448-0.996,0.996-0.996c0.548,0,0.996,0.448,0.996,0.996
	C14,49.571,13.552,50.019,13.005,50.019z M24,47H2V16.5h22V47z"/>
</svg>
