<?xml version="1.0" encoding="iso-8859-1"?>
<!-- Generator: Adobe Illustrator 18.0.0, SVG Export Plug-In . SVG Version: 6.00 Build 0)  -->
<!DOCTYPE svg PUBLIC "-//W3C//DTD SVG 1.1//EN" "http://www.w3.org/Graphics/SVG/1.1/DTD/svg11.dtd">
<svg version="1.1" id="Layer_1" xmlns="http://www.w3.org/2000/svg" xmlns:xlink="http://www.w3.org/1999/xlink" x="0px" y="0px"
	 width="21px" height="54px" viewBox="0 0 21 54" style="enable-background:new 0 0 21 54;" xml:space="preserve">
<path style="fill:#333333;" d="M19.933,20h-0.01H1.077h-0.01C0.378,20,0,20.447,0,21.154v6.721v21.472C0,50.053,0.378,51,1.067,51
	h18.866C20.622,51,21,50.053,21,49.346V27.874v-6.721C21,20.447,20.622,20,19.933,20z M10.5,20.843c0.268,0,0.49,0.224,0.49,0.495
	s-0.222,0.495-0.49,0.495c-0.268,0-0.49-0.224-0.49-0.495S10.232,20.843,10.5,20.843z M10.505,50.519
	c-0.548,0-0.996-0.448-0.996-0.996c0-0.548,0.448-0.996,0.996-0.996c0.548,0,0.996,0.448,0.996,0.996
	C11.5,50.071,11.052,50.519,10.505,50.519z M19,48H2V23h17V48z"/>
</svg>
