<svg id="Layer" xmlns="http://www.w3.org/2000/svg" width="40" height="54" viewBox="0 0 40 54"><defs><style>.cls-1{fill:#333;fill-rule:evenodd}</style></defs><path class="cls-1" d="M16.66 24.77c-3.19 0-5.23 2.41-5.23 6.22s2 6.23 5.23 6.23 5.23-2.42 5.23-6.23-2.04-6.22-5.23-6.22z"/><path class="cls-1" d="M39.21 16.32a8.45 8.45 0 0 0-5.37-4.82A17.43 17.43 0 0 0 29 11H11a17.43 17.43 0 0 0-4.83.51 8.46 8.46 0 0 0-5.38 4.81A15.68 15.68 0 0 0 0 22v18a15.68 15.68 0 0 0 .79 5.67 8.49 8.49 0 0 0 5.37 4.82A17.4 17.4 0 0 0 11 51h18a17.4 17.4 0 0 0 4.83-.51 8.48 8.48 0 0 0 5.37-4.82A15.68 15.68 0 0 0 40 40V22a15.68 15.68 0 0 0-.79-5.68zM8.65 37.71h-.73v-10h.73v10zm-.37-12.49a.57.57 0 1 1 .59-.57.57.57 0 0 1-.59.57zm8.38 12.68c-3.67 0-6-2.67-6-6.92s2.33-6.91 6-6.91 6 2.68 6 6.91-2.33 6.92-6 6.92zm12 0c-2.76 0-4.73-1.55-4.84-3.78h.74c.11 1.82 1.82 3.1 4.16 3.1s3.87-1.29 3.87-3c0-1.41-.95-2.22-3.2-2.78L27.76 31c-2.49-.63-3.61-1.64-3.61-3.32 0-2.09 2-3.6 4.4-3.6s4.42 1.49 4.5 3.46h-.72c-.1-1.61-1.67-2.78-3.79-2.78s-3.63 1.21-3.63 2.9c0 1.34 1 2.11 3.15 2.65l1.5.38c2.6.64 3.76 1.64 3.76 3.43-.01 2.23-1.88 3.78-4.69 3.78z"/></svg>