<?xml version="1.0" encoding="iso-8859-1"?>
<!-- Generator: Adobe Illustrator 18.0.0, SVG Export Plug-In . SVG Version: 6.00 Build 0)  -->
<!DOCTYPE svg PUBLIC "-//W3C//DTD SVG 1.1//EN" "http://www.w3.org/Graphics/SVG/1.1/DTD/svg11.dtd">
<svg version="1.1" id="Layer_1" xmlns="http://www.w3.org/2000/svg" xmlns:xlink="http://www.w3.org/1999/xlink" x="0px" y="0px"
	 width="33px" height="54px" viewBox="0 0 33 54" style="enable-background:new 0 0 33 54;" xml:space="preserve">
<g>
	<g>
		<path style="fill:#333333;" d="M30,51h1.5c0.88,0,1.5-0.63,1.5-1.5v-45C33,3.63,32.38,3,31.5,3L30,3.01V8h1v38h-1V51 M29,51.51
			V2.49C29,1.63,28,1,27.5,1l-6,1.5C20.859,2.66,20,3.67,20,4.62v44.76c0,0.95,0.859,1.96,1.5,2.12c0,0,5.5,1.5,6,1.5
			S29,52.481,29,51.51z M0,4.7v44.6C0,50.24,0.77,51,1.72,51H10c-0.46-0.43-1-1.03-1-1.7V4.7C9,4.03,9.54,3.43,10,3H1.72
			C0.77,3,0,3.77,0,4.7z M10,4.7v44.6c0,0.94,0.77,1.7,1.72,1.7H20c-0.46-0.43-1-1.03-1-1.7V4.7c0-0.67,0.54-1.27,1-1.7h-8.28
			C10.77,3,10,3.77,10,4.7z"/>
	</g>
</g>
</svg>
