<?xml version="1.0" encoding="iso-8859-1"?>
<!-- Generator: Adobe Illustrator 18.0.0, SVG Export Plug-In . SVG Version: 6.00 Build 0)  -->
<!DOCTYPE svg PUBLIC "-//W3C//DTD SVG 1.1//EN" "http://www.w3.org/Graphics/SVG/1.1/DTD/svg11.dtd">
<svg version="1.1" id="Layer_1" xmlns="http://www.w3.org/2000/svg" xmlns:xlink="http://www.w3.org/1999/xlink" x="0px" y="0px"
	 width="45px" height="54px" viewBox="0 0 45 54" style="enable-background:new 0 0 45 54;" xml:space="preserve">
<path style="fill:#333333;" d="M19.933,20h-0.01H1.077h-0.01C0.378,20,0,20.447,0,21.154v6.721v21.472C0,50.053,0.378,51,1.067,51
	h18.866C20.622,51,21,50.053,21,49.346V27.874v-6.721C21,20.447,20.622,20,19.933,20z M10.5,20.843c0.268,0,0.49,0.224,0.49,0.495
	s-0.222,0.495-0.49,0.495c-0.268,0-0.49-0.224-0.49-0.495S10.232,20.843,10.5,20.843z M10.505,50.519
	c-0.548,0-0.996-0.448-0.996-0.996c0-0.548,0.448-0.996,0.996-0.996c0.548,0,0.996,0.448,0.996,0.996
	C11.5,50.071,11.052,50.519,10.505,50.519z M19,48H2V23h17V48z"/>
<path style="fill:#333333;" d="M31.933,13h-0.01H8.077h-0.01C7.378,13,7,13.447,7,14.154V19h2v-2.5h22V47h-9v2.346
	c0,0.584-0.156,1.177-0.444,1.654h10.377C32.622,51,33,50.053,33,49.346V20.874v-6.721C33,13.447,32.622,13,31.933,13z M20,15.333
	c-0.268,0-0.49-0.224-0.49-0.495c0-0.271,0.222-0.495,0.49-0.495c0.268,0,0.49,0.224,0.49,0.495
	C20.49,15.109,20.268,15.333,20,15.333z"/>
<g>
	<path style="fill:#333333;" d="M43.497,3H12.443C11.75,3,11.175,3.454,11,4.096V12h2V7h30v40h-9v2.346
		c0,0.584-0.156,1.177-0.444,1.654h10.345C44.534,50.827,45,50.265,45,49.558V4.502C45,3.651,44.329,3,43.497,3z M27.97,5.753
		c-0.411,0-0.751-0.34-0.751-0.751s0.341-0.751,0.751-0.751c0.411,0,0.751,0.34,0.751,0.751S28.381,5.753,27.97,5.753z"/>
</g>
</svg>
