<svg id="Dark" xmlns="http://www.w3.org/2000/svg" viewBox="0 0 28 54"><defs><style>.cls-1{fill:#efefef;}</style></defs><title>Family-Music-Browser-Icons-MASTER-LMS-05-jason-export</title><path class="cls-1" d="M22,22H6a6,6,0,0,0-6,6V44a6,6,0,0,0,6,6H22a6,6,0,0,0,6-6V28A6,6,0,0,0,22,22ZM20,41a2.17,2.17,0,0,1-.38.83,2.23,2.23,0,0,1-.72.61,3,3,0,0,1-.91.31,3.75,3.75,0,0,1-1.4.07,2,2,0,0,1-.95-0.44,1.87,1.87,0,0,1-.66-1.2,1.83,1.83,0,0,1,.56-1.51,2.3,2.3,0,0,1,.85-0.51,9.47,9.47,0,0,1,1.44-.34l0.51-.09a0.91,0.91,0,0,0,.57-0.27,0.83,0.83,0,0,0,.16-0.6V32.46c0-.41-0.2-0.52-0.62-0.45l-6.77,1.26a0.51,0.51,0,0,0-.49.61v7.84a3.83,3.83,0,0,1-.09.89,2.17,2.17,0,0,1-.38.83,2.23,2.23,0,0,1-.72.61,3,3,0,0,1-.91.31,3.75,3.75,0,0,1-1.4.07A2,2,0,0,1,6.69,44,1.85,1.85,0,0,1,6,42.79a1.81,1.81,0,0,1,.54-1.51,2.3,2.3,0,0,1,.85-0.51,9.47,9.47,0,0,1,1.44-.34l0.51-.09A0.91,0.91,0,0,0,10,40.07a0.84,0.84,0,0,0,.17-0.59v-9a1.47,1.47,0,0,1,0-.24,0.72,0.72,0,0,1,.26-0.47,1.13,1.13,0,0,1,.49-0.2h0l7.79-1.46L19.37,28a0.57,0.57,0,0,1,.66.64V40.06A3.85,3.85,0,0,1,20,41Z"/></svg>