<svg xmlns="http://www.w3.org/2000/svg" width="23" height="54" viewBox="0 0 23 54"><path d="M21.52 36H9.48C8.66 36 8 36.67 8 37.48v12.04c0 .81.66 1.48 1.48 1.48h11.85c.81 0 1.67-.66 1.67-1.48V37.48c0-.81-.66-1.48-1.48-1.48zM15.4 48.98c-2.97 0-5.38-2.41-5.38-5.38 0-2.97 2.41-5.38 5.38-5.38s5.38 2.41 5.38 5.38c.01 2.97-2.4 5.38-5.38 5.38zm0-8.08a2.69 2.69 0 0 1 0 5.38c-1.48 0-2.69-1.21-2.69-2.69s1.21-2.69 2.69-2.69zM7.5 51H1.35C.6 51 0 50.4 0 49.65v-32.3C0 16.6.6 16 1.35 16h13.31c.74 0 1.34.6 1.34 1.35V35h-1V17H1v26h6v6.52c0 .56.19 1.07.5 1.48z" fill="#333"/></svg>