<svg id="Light" xmlns="http://www.w3.org/2000/svg" viewBox="0 0 31 54"><defs><style>.cls-1{fill:#333;}</style></defs><title>Family-Music-Browser-Icons-MASTER-LMS-06-jason-export</title><path class="cls-1" d="M15.46,21.5a14.64,14.64,0,0,0-15,15,14.66,14.66,0,0,0,15,15,14.72,14.72,0,0,0,15-15A14.67,14.67,0,0,0,15.46,21.5ZM21.93,41a2.17,2.17,0,0,1-.38.83,2.23,2.23,0,0,1-.72.61,3,3,0,0,1-.91.31,3.75,3.75,0,0,1-1.4.07,2,2,0,0,1-.95-0.44,1.87,1.87,0,0,1-.66-1.2,1.83,1.83,0,0,1,.56-1.51,2.3,2.3,0,0,1,.85-0.51,9.47,9.47,0,0,1,1.44-.34l0.51-.09a0.91,0.91,0,0,0,.57-0.27,0.83,0.83,0,0,0,.16-0.6V32.49c0-.41-0.2-0.52-0.62-0.45L13.6,33.3a0.51,0.51,0,0,0-.49.61v7.84a3.83,3.83,0,0,1-.09.89,2.17,2.17,0,0,1-.38.83,2.23,2.23,0,0,1-.72.61,3,3,0,0,1-.91.31,3.75,3.75,0,0,1-1.4.07A2,2,0,0,1,8.66,44,1.85,1.85,0,0,1,8,42.81a1.81,1.81,0,0,1,.54-1.51A2.3,2.3,0,0,1,9.4,40.8a9.47,9.47,0,0,1,1.44-.34l0.51-.09a0.91,0.91,0,0,0,.57-0.27,0.84,0.84,0,0,0,.17-0.59v-9a1.47,1.47,0,0,1,0-.24,0.72,0.72,0,0,1,.26-0.47,1.13,1.13,0,0,1,.49-0.2h0l7.79-1.46L21.34,28a0.57,0.57,0,0,1,.66.64V40.08A3.85,3.85,0,0,1,21.93,41Z"/></svg>